<svg width="28" height="28" viewBox="0 0 28 28" fill="none" xmlns="http://www.w3.org/2000/svg">
<path fill-rule="evenodd" clip-rule="evenodd" d="M18.3458 25.6666V16.6308H21.3792L21.833 13.1098H18.3447V10.8616C18.3447 9.84198 18.6282 9.14665 20.0912 9.14665H21.9555V5.99665C21.0527 5.89964 20.1452 5.8529 19.2372 5.85665C16.5492 5.85665 14.7093 7.49815 14.7093 10.5116V13.1098H11.6667V16.6308H14.7082V25.6666H3.62133C2.90967 25.6666 2.33333 25.0903 2.33333 24.3786V3.62131C2.33333 2.90965 2.90967 2.33331 3.62133 2.33331H24.3787C25.0903 2.33331 25.6667 2.90965 25.6667 3.62131V24.3786C25.6667 25.0903 25.0903 25.6666 24.3787 25.6666H18.3458Z" fill="#E0E0E0"/>
</svg>
