<svg width="28" height="28" viewBox="0 0 28 28" fill="none" xmlns="http://www.w3.org/2000/svg">
<path d="M26.2033 7.00002C25.305 7.40835 24.3367 7.67669 23.3333 7.80502C24.36 7.18669 25.1533 6.20669 25.5267 5.02835C24.5583 5.61169 23.485 6.02002 22.3533 6.25335C21.4317 5.25002 20.1367 4.66669 18.6667 4.66669C15.925 4.66669 13.685 6.90669 13.685 9.67169C13.685 10.0684 13.7317 10.4534 13.8133 10.815C9.66 10.605 5.96167 8.61002 3.5 5.58835C3.06833 6.32335 2.82333 7.18669 2.82333 8.09669C2.82333 9.83502 3.69833 11.375 5.05167 12.25C4.22333 12.25 3.45333 12.0167 2.77667 11.6667V11.7017C2.77667 14.1284 4.50333 16.1584 6.79 16.6134C6.05598 16.8151 5.28504 16.8431 4.53833 16.695C4.85521 17.6896 5.47579 18.5598 6.31285 19.1834C7.14991 19.807 8.16135 20.1527 9.205 20.1717C7.43595 21.5723 5.24301 22.3293 2.98667 22.3184C2.59 22.3184 2.19333 22.295 1.79667 22.2484C4.01333 23.6717 6.65 24.5 9.47333 24.5C18.6667 24.5 23.7183 16.87 23.7183 10.255C23.7183 10.0334 23.7183 9.82335 23.7067 9.60169C24.6867 8.90169 25.5267 8.01502 26.2033 7.00002Z" fill="#E0E0E0"/>
</svg>
